<svg xmlns="http://www.w3.org/2000/svg" width="589" height="209" fill="#012e72"><path d="M61.429 117.844h16.364V60.452h23.004V46.223H38.188v14.229h23.241v57.392zM78.504 8.278L123.8 34.365c5.455 3.083 9.012 9.012 9.012 15.415v52.412c0 6.401-3.32 12.332-9.012 15.414l-45.296 26.088c-5.455 3.082-12.332 3.082-17.787 0l-45.533-26.088c-5.455-3.082-9.012-9.013-9.012-15.414V50.018c0-6.402 3.32-12.332 9.012-15.414L60.48 8.516c5.692-3.321 12.332-3.321 18.024-.238m452.727 109.566h15.413v-16.602l4.508-4.506 12.807 21.344h18.022l-20.396-32.016 18.023-18.5h-17.551l-15.414 15.889v-37.23h-15.416l.004 71.621h0zm-82.766-57.63h16.604V46.459h-16.604v13.755zm.711 57.63h15.415V67.567h-15.415v50.277zm-25.139 0h15.415V46.223h-15.415v71.621zM190.678 60.452h-23.241V46.223h62.608v14.229h-23.004v57.153h-16.364l.001-57.153h0 0 0zm35.182 57.392h15.415V92.941c0-4.03 1.186-7.112 3.32-9.248 5.064-4.613 12.807-3.084 14.467-2.608l2.372-13.517c-.949-.475-10.024-2.322-15.178 1.423-2.134 1.66-4.031 3.319-5.217 4.979l-.474-6.402h-14.704l-.001 50.276h0 0 0zm263.078-.006V90.803c0-1.424.595-11.098 10.515-11.142 7.737-.034 7.981 7.294 7.981 9.007V117.6h15.415V86.77c0-6.641-1.235-19.986-18.733-20.395-8.043-.188-13.043 4.743-14.703 6.641l-.476-5.455h-14.702v50.277h14.703 0 0zm-154.782-.005V90.799c0-1.425.22-11.099 10.252-11.143 7.824-.034 8.246 7.294 8.246 9.007v28.933h15.414v-30.83c0-6.642-1.25-19.989-18.945-20.396-8.133-.187-12.811 4.743-14.486 6.642l-.479-5.455h-15.415v50.276h15.413 0zm39.131-5.683c10.729 10.303 27.982 7.353 30.83 6.641 2.607-.711 13.646-3.213 13.992-14.939.336-11.395-9.728-14.467-14.705-15.891-9.012-2.607-11.829-2.695-12.331-6.166-.171-1.174.878-3.842 6.878-3.794 6.201.05 11.146 3.083 12.806 4.032l6.642-10.198c-2.606-1.897-5.69-3.319-9.014-4.269s-22.184-5.426-30.592 8.063c-6.277 12.887 6.402 18.973 8.3 19.922 2.358 1.401 12.548 3.401 15.181 4.979 1.742.549 2.134 2.606 2.134 3.082 0 1.66-.017 3.902-7.825 4.271-2.604.121-9.064-.742-14.229-5.219l-8.067 9.486h0 0zm-78.023 5.754h14.467V88.498c0-6.877-1.84-23.107-22.292-22.768-3.084.052-13.111-.777-22.53 6.642l6.403 9.485c6.266-4.279 10.673-4.131 14.229-4.031 9.1.252 9.486 5.691 9.486 7.115v1.186c-.477-.236-1.662-.141-3.557-.236-8.58-.438-11.858.476-14.705 1.188-13.876 4.003-14.014 14.229-13.992 17.074.116 14.613 14.421 15.732 17.075 15.65 7.353-.225 11.292-2.287 15.177-6.166l.239 4.267h0 0zm-10.298-9.677c-4.578.143-7.589-2.133-7.589-6.166 0-2.133.948-4.028 2.608-5.217 6.09-3.228 13.992-1.423 14.466-1.423v4.269c-.002 1.677-.425 8.261-9.485 8.537h0 0zm-53.234 27.643h12.585v10.053h-12.585zm.539 15.426h11.684v36.742h-11.684zm115.713-15.054h11.684v51.507h-11.684zm-85.317 51.507h11.684v-18.198c0-2.945.899-5.198 2.517-6.759 3.838-3.371 9.708-2.253 10.966-1.905l1.798-9.879c-.72-.348-7.598-1.696-11.504 1.039-1.618 1.214-3.056 2.427-3.954 3.641l-.36-4.68h-11.145l-.002 36.741h0 0 0zm-61.47.285v-19.758c0-1.04.636-8.142 6.97-8.142 5.865-.025 6.05 5.33 6.05 6.582v21.143h11.684v-22.53c0-4.853-.937-14.605-14.199-14.904-6.097-.137-8.886 3.467-10.145 4.853l-.36-3.986h-11.144v36.743h11.144v-.001h0zm297.614-4.445c8.131 7.528 21.209 5.373 23.367 4.853 1.977-.521 10.344-2.349 10.605-10.917.256-8.327-7.373-10.572-11.146-11.613-6.831-1.906-8.967-1.97-9.347-4.506-.13-.857.666-2.808 5.214-2.772 4.7.035 8.448 2.253 9.705 2.946l5.035-7.453c-1.977-1.387-4.314-2.426-6.832-3.119s-16.815-3.965-23.188 5.893c-4.758 9.417 4.854 13.865 6.29 14.559 1.789 1.023 9.512 2.484 11.508 3.638 1.32.401 1.616 1.905 1.616 2.253 0 1.213-.011 2.851-5.931 3.121-1.973.089-6.87-.542-10.784-3.813l-6.112 6.93h0 0zm-191.168-33.924c-2.295.038-9.761-.567-16.775 4.854l4.46 6.983c4.665-3.127 8.255-3.12 10.901-2.998 5.949.275 6.56 4.002 6.56 5.042v.866c-.355-.172-.734.055-2.145-.014-6.388-.32-8.832-.037-10.951.482-10.332 2.926-10.431 10.783-10.415 12.863.086 10.679 10.645 11.135 12.621 11.074 5.475-.164 8.324-1.999 11.218-4.834l.177 3.81h10.945v-21.491c0-5.025-1.37-16.885-16.596-16.637zm5.221 23.477c-.001 1.227-.318 7.378-7.063 7.579-3.407.104-5.649-1.559-5.649-4.506 0-1.56.706-2.944 1.942-3.813 4.533-2.358 10.417-1.039 10.771-1.039v1.779zm16.727-36.73h12.585v9.893h-12.585zm.538 14.755h11.684v36.582h-11.684zm32.621 0h11L380.375 174l7.375-22.833h8.625L403.5 174l6.5-22.833h10.875L408.5 187.749h-9.75l-6.937-20.624-6.938 20.624h-9.5zm77.244-1.502c-2.295.038-9.761-.567-16.775 4.854l4.995 7.241c4.665-3.127 7.721-3.378 10.367-3.256 5.949.275 6.56 4.002 6.56 5.042v.866c-.355-.172-.734.055-2.145-.014-6.388-.32-8.283-.162-10.402.357-10.332 2.926-10.513 10.422-10.496 12.502.087 10.679 10.177 11.621 12.153 11.561 5.475-.164 8.324-1.999 11.218-4.834l.177 3.81h10.646v-21.491c-.001-5.026-1.071-16.886-16.298-16.638zm5.222 23.477c-.001 1.227-.318 7.378-7.063 7.579-3.407.104-5.649-1.559-5.649-4.506 0-1.56.706-2.944 1.942-3.813 4.533-2.358 10.417-1.039 10.771-1.039v1.779zm54.097-21.975h-11.625l-8.563 23.021-9.124-23.021h-12.626l16.73 36.06s-1.855 7.836-6.168 7.836c-3 0-4.813-1.75-4.813-1.75l-4.625 7.625s4.125 3.056 9.875 3.056 9.188-2.993 12.563-8.556l18.376-44.271z"/></svg>